# xmcd
#
# Track frame offsets:
#	150
#	14586
#	27447
#	43188
#	59803
#	70814
#	90451
#	105693
#	116764
#	134352
#	146807
#	160853
#	174635
#	191685
#	208520
#
# Disc length: 2983 seconds
# Revision: 0
# Processed by: cddbd v1.5.2PL0 Copyright (c) Steve Scherf et al.
# Submitted via: dBpowerAMP V12.0
#
DISCID=e30ba50f
DTITLE=Ole Ivars - 15 Ferske
DYEAR=2009
DGENRE=Danseband
TTITLE0=Bare går og tar en øl
TTITLE1=I taxikø med paraply
TTITLE2=Ingen låter swinger bedre
TTITLE3=Nå har dama dratt
TTITLE4=Da disco`n kom tel dal`n
TTITLE5=Oktobermorgen
TTITLE6=Ut på landevegen
TTITLE7=Linda
TTITLE8=Sol- og måneformørkelse
TTITLE9=Alle vil leva
TTITLE10=Senorita
TTITLE11=Chevrolet`n og kjerringa
TTITLE12=Nå er det opp tel deg
TTITLE13=Som je har kosa meg
TTITLE14=Plutselig er det for sent
EXTD=
EXTT0=
EXTT1=
EXTT2=
EXTT3=
EXTT4=
EXTT5=
EXTT6=
EXTT7=
EXTT8=
EXTT9=
EXTT10=
EXTT11=
EXTT12=
EXTT13=
EXTT14=
PLAYORDER=
